<svg width="41" height="42" viewBox="0 0 41 42" fill="none" xmlns="http://www.w3.org/2000/svg">
<g clip-path="url(#clip0_2938_8389)">
<path d="M22.2596 3.69457L3.485 0.841649C2.61375 0.704982 1.72542 0.944148 1.05917 1.5079C0.392917 2.08873 0 2.92582 0 3.79707V39.7916C0 40.7312 0.76875 41.5 1.70833 41.5H7.26042V32.5312C7.26042 30.8741 8.59292 29.5416 10.25 29.5416H14.5208C16.1779 29.5416 17.5104 30.8741 17.5104 32.5312V41.5H24.7708V6.64998C24.7708 5.18081 23.7117 3.93373 22.2596 3.69457ZM9.39583 25.6979H6.83333C6.49353 25.6979 6.16763 25.5629 5.92735 25.3226C5.68707 25.0823 5.55208 24.7565 5.55208 24.4166C5.55208 24.0768 5.68707 23.7509 5.92735 23.5107C6.16763 23.2704 6.49353 23.1354 6.83333 23.1354H9.39583C9.73564 23.1354 10.0615 23.2704 10.3018 23.5107C10.5421 23.7509 10.6771 24.0768 10.6771 24.4166C10.6771 24.7565 10.5421 25.0823 10.3018 25.3226C10.0615 25.5629 9.73564 25.6979 9.39583 25.6979ZM9.39583 20.5729H6.83333C6.49353 20.5729 6.16763 20.4379 5.92735 20.1976C5.68707 19.9573 5.55208 19.6315 5.55208 19.2916C5.55208 18.9518 5.68707 18.6259 5.92735 18.3857C6.16763 18.1454 6.49353 18.0104 6.83333 18.0104H9.39583C9.73564 18.0104 10.0615 18.1454 10.3018 18.3857C10.5421 18.6259 10.6771 18.9518 10.6771 19.2916C10.6771 19.6315 10.5421 19.9573 10.3018 20.1976C10.0615 20.4379 9.73564 20.5729 9.39583 20.5729ZM9.39583 15.4479H6.83333C6.49353 15.4479 6.16763 15.3129 5.92735 15.0726C5.68707 14.8323 5.55208 14.5065 5.55208 14.1666C5.55208 13.8268 5.68707 13.5009 5.92735 13.2607C6.16763 13.0204 6.49353 12.8854 6.83333 12.8854H9.39583C9.73564 12.8854 10.0615 13.0204 10.3018 13.2607C10.5421 13.5009 10.6771 13.8268 10.6771 14.1666C10.6771 14.5065 10.5421 14.8323 10.3018 15.0726C10.0615 15.3129 9.73564 15.4479 9.39583 15.4479ZM9.39583 10.3229H6.83333C6.49353 10.3229 6.16763 10.1879 5.92735 9.94763C5.68707 9.70735 5.55208 9.38146 5.55208 9.04165C5.55208 8.70184 5.68707 8.37595 5.92735 8.13567C6.16763 7.89539 6.49353 7.7604 6.83333 7.7604H9.39583C9.73564 7.7604 10.0615 7.89539 10.3018 8.13567C10.5421 8.37595 10.6771 8.70184 10.6771 9.04165C10.6771 9.38146 10.5421 9.70735 10.3018 9.94763C10.0615 10.1879 9.73564 10.3229 9.39583 10.3229ZM17.9375 25.6979H15.375C15.0352 25.6979 14.7093 25.5629 14.469 25.3226C14.2287 25.0823 14.0938 24.7565 14.0938 24.4166C14.0938 24.0768 14.2287 23.7509 14.469 23.5107C14.7093 23.2704 15.0352 23.1354 15.375 23.1354H17.9375C18.2773 23.1354 18.6032 23.2704 18.8435 23.5107C19.0838 23.7509 19.2188 24.0768 19.2188 24.4166C19.2188 24.7565 19.0838 25.0823 18.8435 25.3226C18.6032 25.5629 18.2773 25.6979 17.9375 25.6979ZM17.9375 20.5729H15.375C15.0352 20.5729 14.7093 20.4379 14.469 20.1976C14.2287 19.9573 14.0938 19.6315 14.0938 19.2916C14.0938 18.9518 14.2287 18.6259 14.469 18.3857C14.7093 18.1454 15.0352 18.0104 15.375 18.0104H17.9375C18.2773 18.0104 18.6032 18.1454 18.8435 18.3857C19.0838 18.6259 19.2188 18.9518 19.2188 19.2916C19.2188 19.6315 19.0838 19.9573 18.8435 20.1976C18.6032 20.4379 18.2773 20.5729 17.9375 20.5729ZM17.9375 15.4479H15.375C15.0352 15.4479 14.7093 15.3129 14.469 15.0726C14.2287 14.8323 14.0938 14.5065 14.0938 14.1666C14.0938 13.8268 14.2287 13.5009 14.469 13.2607C14.7093 13.0204 15.0352 12.8854 15.375 12.8854H17.9375C18.2773 12.8854 18.6032 13.0204 18.8435 13.2607C19.0838 13.5009 19.2188 13.8268 19.2188 14.1666C19.2188 14.5065 19.0838 14.8323 18.8435 15.0726C18.6032 15.3129 18.2773 15.4479 17.9375 15.4479ZM17.9375 10.3229H15.375C15.0352 10.3229 14.7093 10.1879 14.469 9.94763C14.2287 9.70735 14.0938 9.38146 14.0938 9.04165C14.0938 8.70184 14.2287 8.37595 14.469 8.13567C14.7093 7.89539 15.0352 7.7604 15.375 7.7604H17.9375C18.2773 7.7604 18.6032 7.89539 18.8435 8.13567C19.0838 8.37595 19.2188 8.70184 19.2188 9.04165C19.2188 9.38146 19.0838 9.70735 18.8435 9.94763C18.6032 10.1879 18.2773 10.3229 17.9375 10.3229ZM38.6425 19.0217L26.4792 16.4746V41.5H38.0104C39.659 41.5 41 40.1589 41 38.5104V21.943C41 20.5319 40.0382 19.3309 38.6425 19.0217ZM34.5938 36.375H32.0312C31.6914 36.375 31.3656 36.24 31.1253 35.9997C30.885 35.7594 30.75 35.4335 30.75 35.0937C30.75 34.7539 30.885 34.428 31.1253 34.1877C31.3656 33.9475 31.6914 33.8125 32.0312 33.8125H34.5938C34.9336 33.8125 35.2595 33.9475 35.4997 34.1877C35.74 34.428 35.875 34.7539 35.875 35.0937C35.875 35.4335 35.74 35.7594 35.4997 35.9997C35.2595 36.24 34.9336 36.375 34.5938 36.375ZM34.5938 31.25H32.0312C31.6914 31.25 31.3656 31.115 31.1253 30.8747C30.885 30.6344 30.75 30.3085 30.75 29.9687C30.75 29.6289 30.885 29.303 31.1253 29.0627C31.3656 28.8225 31.6914 28.6875 32.0312 28.6875H34.5938C34.9336 28.6875 35.2595 28.8225 35.4997 29.0627C35.74 29.303 35.875 29.6289 35.875 29.9687C35.875 30.3085 35.74 30.6344 35.4997 30.8747C35.2595 31.115 34.9336 31.25 34.5938 31.25ZM34.5938 26.125H32.0312C31.6914 26.125 31.3656 25.99 31.1253 25.7497C30.885 25.5094 30.75 25.1835 30.75 24.8437C30.75 24.5039 30.885 24.178 31.1253 23.9378C31.3656 23.6975 31.6914 23.5625 32.0312 23.5625H34.5938C34.9336 23.5625 35.2595 23.6975 35.4997 23.9378C35.74 24.178 35.875 24.5039 35.875 24.8437C35.875 25.1835 35.74 25.5094 35.4997 25.7497C35.2595 25.99 34.9336 26.125 34.5938 26.125Z" fill="white"/>
</g>
<defs>
<clipPath id="clip0_2938_8389">
<rect width="41" height="41" fill="white" transform="translate(0 0.5)"/>
</clipPath>
</defs>
</svg>
