<svg width="43" height="44" viewBox="0 0 43 44" fill="none" xmlns="http://www.w3.org/2000/svg">
<g clip-path="url(#clip0_2938_8398)">
<path d="M35.3574 19.3408C35.3574 22.907 33.6727 26.0848 31.084 28.1592H40.7046C40.757 28.0698 40.8073 27.9791 40.8553 27.8873C41.057 27.5306 41.217 27.1529 41.3732 26.7739L42.12 25.0971L39.662 24.1289C38.78 23.8275 37.9124 23.7834 37.0888 23.8975C37.1766 23.6473 37.2596 23.3957 37.3332 23.139C37.6519 23.2171 37.974 23.2567 38.2951 23.2567C39.283 23.2567 40.2586 22.8901 41.073 22.1949C42.35 21.1037 42.9922 19.4245 42.8335 17.5877L42.4103 14.581L39.8157 15.0719C38.9508 15.2784 38.1608 15.701 37.4871 16.2675C37.427 16.0059 37.3539 15.7496 37.2791 15.4934L37.3651 15.4594C38.7454 14.9255 39.7321 13.7936 40.0778 12.3383C40.4186 10.8251 40.0101 9.14578 38.9841 7.84419C38.6212 7.36683 38.241 6.90432 37.8215 6.47743L36.9616 5.60399L35.1003 7.33861C34.483 7.97034 34.0435 8.74325 33.7785 9.5804C33.5874 9.38867 33.417 9.17736 33.2147 8.99679L33.2364 8.9674C34.1394 7.75811 34.3731 6.26823 33.8885 4.91625C33.4259 3.48675 32.1931 2.26511 30.5927 1.64749L30.5791 1.64254C30.1891 1.49733 29.7918 1.37681 29.3932 1.25621L27.6917 0.723495L27.0139 3.26889C26.8155 4.17593 26.8715 5.04147 27.0782 5.84562C26.9793 5.82328 26.8896 5.78045 26.79 5.76012L25.5548 5.51035L25.0541 7.97941L26.288 8.23035C31.7357 9.33584 35.3574 14.3639 35.3574 19.3408ZM1.92685 22.195C2.74864 22.8963 3.73411 23.2629 4.70103 23.2629C5.00371 23.2629 5.3063 23.2272 5.60033 23.1534L5.6671 23.1408C5.74134 23.3996 5.82549 23.6537 5.91435 23.9061C5.07795 23.7925 4.19107 23.8395 3.28253 24.1487L0.879904 25.0972L1.62669 26.774C1.7829 27.153 1.94289 27.5306 2.14462 27.8874C2.19264 27.9792 2.24288 28.0699 2.29529 28.1593H11.9159C9.32697 26.0844 7.64258 22.906 7.64258 19.3408C7.64258 14.4506 11.2282 9.3434 16.7119 8.23052L17.9458 7.97958L17.4451 5.51052L16.2099 5.76029C16.107 5.7812 16.0147 5.82546 15.9128 5.84856C16.1222 5.03047 16.1768 4.14561 15.9724 3.21246L15.3081 0.723663L13.6066 1.25638C13.2081 1.37698 12.8106 1.4975 12.4207 1.6427L12.4072 1.64766C10.8066 2.26528 9.57397 3.48683 9.12364 4.87946C8.62662 6.2684 8.86035 7.75819 9.75848 8.96144L9.78494 8.9973C9.58195 9.17862 9.41079 9.39051 9.21905 9.58301C8.94669 8.73644 8.49443 7.94833 7.85783 7.29695L6.03831 5.60399L5.17839 6.47743C4.75889 6.90432 4.37878 7.36691 4.0158 7.84419C2.98976 9.14578 2.58134 10.8251 2.92576 12.3518C3.26775 13.7936 4.2544 14.9255 5.62611 15.4557L5.72068 15.4931C5.64484 15.7523 5.57094 16.0116 5.5103 16.2763C4.82507 15.7003 4.01664 15.2719 3.12506 15.0596L0.58957 14.5811L0.166373 17.5878C0.00772655 19.4245 0.649871 21.1038 1.92685 22.195ZM10.3577 30.6787L8.67718 40.7568H34.3228L32.6423 30.6787H10.3577ZM35.617 33.1982L37.2975 43.2764H43L39.6415 38.2373L43 33.1982H35.617ZM3.35854 38.2373L0 43.2764H5.70246L7.38298 33.1982H0L3.35854 38.2373Z" fill="white"/>
<path d="M20.2402 25.6397H12.6816V24.3799C12.6816 21.8604 14.3585 20.6031 15.7056 19.5931C16.9924 18.6273 17.7207 18.022 17.7207 16.8213C17.7207 16.1263 17.156 15.5616 16.4609 15.5616C15.7659 15.5616 15.2012 16.1263 15.2012 16.8213V18.0811H12.6816V16.8213C12.6816 14.7373 14.3769 13.042 16.4609 13.042C18.5449 13.042 20.2402 14.7373 20.2402 16.8213C20.2402 19.3409 18.5634 20.5982 17.2163 21.6082C16.4658 22.1716 15.9049 22.612 15.5678 23.1201H20.2402V25.6397ZM26.5391 25.6397H22.7598V23.1201H26.5391C27.2341 23.1201 27.7988 22.5554 27.7988 21.8604C27.7988 21.1653 27.2341 20.6006 26.5391 20.6006H22.7598V13.042H30.3184V15.5616H25.2793V18.0811H26.5391C28.6231 18.0811 30.3184 19.7764 30.3184 21.8604C30.3184 23.9444 28.6231 25.6397 26.5391 25.6397Z" fill="white"/>
</g>
<defs>
<clipPath id="clip0_2938_8398">
<rect width="43" height="43" fill="white" transform="translate(0 0.5)"/>
</clipPath>
</defs>
</svg>
