<svg width="280" height="62" viewBox="0 0 280 62" fill="none" xmlns="http://www.w3.org/2000/svg">
<g clip-path="url(#clip0_2928_7488)">
<path d="M44.1299 61.7309H56.3008L54.6986 51.1096L56.3008 41.1539L53.49 30.2353L54.9516 11.6126L52.1689 4.33349V0H47.7699V1.69941H41.6986L39.984 4.20603L34.011 7.01005L36.3861 11.1594L42.4434 12.1366L38.3818 15.4363L34.7839 14.2608L31.3828 8.17131L27.1666 5.52307L22.6693 6.08954L27.6304 11.1169L29.4434 20.053L33.4488 22.3047L30.4131 24.7405L22.5709 24.2307L17.9752 26.7232L24.1309 30.1645L27.0401 29.4422L33.6877 32.2887L36.8921 30.915L35.9504 37.1887L30.2163 44.9918L32.1839 57.3833L28.4174 59.3376L27.1385 61.7309H38.8737L38.0304 54.7634L43.2164 48.5039L49.1051 57.2983L45.2261 59.3659L44.1299 61.7309Z" fill="#B9906A"/>
<path d="M12.6089 0.00668249L10.4524 2.17969L12.6089 4.35269L14.7654 2.17969L12.6089 0.00668249Z" fill="#B9906A"/>
<path d="M18.3266 45.6999H14.1947V31.3824L16.1763 29.3856L14.1947 27.3888V22.9986L25.2271 11.8817L16.9774 3.56876L12.6065 7.97305L8.23571 3.56876L0 11.8817L11.0325 22.9986V27.3888L9.05085 29.3856L11.0325 31.3824V45.6999H6.97084V43.7031H3.80866V50.8689H6.97084V48.8721H11.0325V56.5477H6.97084V54.5509H3.80866V61.7168H6.97084V59.72H18.3266V61.7168H21.4887V54.5509H18.3266V56.5477H14.1947V48.8721H18.3266V50.8689H21.4887V43.7031H18.3266V45.6999ZM8.24976 8.05802L10.386 10.2106L8.76976 11.8392L11.0044 14.0909L12.6206 12.4623L14.2368 14.0909L16.4714 11.8392L14.8552 10.2106L16.9914 8.05802L20.772 11.8675L12.6206 20.0813L4.46921 11.8675L8.24976 8.05802Z" fill="#B9906A"/>
<path d="M109.636 12.7647H121.666V48.5797H109.636V35.3526H89.2436V48.5797H77.2133V12.7647H89.2436V25.3545H109.636V12.7647ZM161.903 12.7647L178.586 48.3248V48.5939H165.459L162.409 41.6971H143.942L140.892 48.5939H128.188V48.3248L144.715 12.7647H161.917H161.903ZM158.797 33.5258L153.344 21.2051H153.035L147.582 33.5258H158.811H158.797ZM216.728 36.1315L230.08 48.3248V48.5939H214.972L201.845 36.2165H197.137V48.5939H185.107V12.7647H214.381C217.839 12.7647 220.678 13.232 222.926 14.1667C225.175 15.1014 226.833 16.4326 227.915 18.1745C228.998 19.9164 229.532 22.0265 229.532 24.5189C229.532 27.0114 228.998 29.1215 227.915 30.8634C226.833 32.6053 225.175 33.9223 222.926 34.8428C221.212 35.5368 219.132 35.9758 216.7 36.1315H216.728ZM197.151 28.5692H216.911V21.984H197.151V28.5692ZM234.001 12.7647V22.777H250.992V48.5939H263.009V22.777H280V12.7647H234.001Z" fill="#B9906A"/>
</g>
<defs>
<clipPath id="clip0_2928_7488">
<rect width="280" height="62" fill="white"/>
</clipPath>
</defs>
</svg>
