<svg width="200" height="45" viewBox="0 0 200 45" fill="none" xmlns="http://www.w3.org/2000/svg">
<g clip-path="url(#clip0_2928_6133)">
<path d="M31.4 44.09H40.06L38.92 36.59L40.06 29.56L38.06 21.85L39.1 8.7L37.12 3.56V0.5H33.99V1.7H29.67L28.45 3.47L24.2 5.45L25.89 8.38L30.2 9.07L27.31 11.4L24.75 10.57L22.33 6.27L19.33 4.4L16.13 4.8L19.66 8.35L20.95 14.66L23.8 16.25L21.64 17.97L16.06 17.61L12.79 19.37L17.17 21.8L19.24 21.29L23.97 23.3L26.25 22.33L25.58 26.76L21.5 32.27L22.9 41.02L20.22 42.4L19.31 44.09H27.66L27.06 39.17L30.75 34.75L34.94 40.96L32.18 42.42L31.4 44.09Z" fill="#B9906A"/>
<path d="M8.97192 0.504762L7.4375 2.03918L8.97192 3.57361L10.5063 2.03918L8.97192 0.504762Z" fill="#B9906A"/>
<path d="M13.04 32.77H10.1V22.66L11.51 21.25L10.1 19.84V16.74L17.95 8.89002L12.08 3.02002L8.97 6.13002L5.86 3.02002L0 8.89002L7.85 16.74V19.84L6.44 21.25L7.85 22.66V32.77H4.96V31.36H2.71V36.42H4.96V35.01H7.85V40.43H4.96V39.02H2.71V44.08H4.96V42.67H13.04V44.08H15.29V39.02H13.04V40.43H10.1V35.01H13.04V36.42H15.29V31.36H13.04V32.77ZM5.87 6.19002L7.39 7.71002L6.24 8.86002L7.83 10.45L8.98 9.30002L10.13 10.45L11.72 8.86002L10.57 7.71002L12.09 6.19002L14.78 8.88002L8.98 14.68L3.18 8.88002L5.87 6.19002Z" fill="#B9906A"/>
<path d="M78.0099 1.81006H86.5699V27.1001H78.0099V17.7601H63.4999V27.1001H54.9399V1.81006H63.4999V10.7001H78.0099V1.81006ZM115.2 1.81006L127.07 26.9201V27.1101H117.73L115.56 22.2401H102.42L100.25 27.1101H91.2099V26.9201L102.97 1.81006H115.21H115.2ZM112.99 16.4701L109.11 7.77006H108.89L105.01 16.4701H113H112.99ZM154.21 18.3101L163.71 26.9201V27.1101H152.96L143.62 18.3701H140.27V27.1101H131.71V1.81006H152.54C155 1.81006 157.02 2.14006 158.62 2.80006C160.22 3.46006 161.4 4.40006 162.17 5.63006C162.94 6.86006 163.32 8.35006 163.32 10.1101C163.32 11.8701 162.94 13.3601 162.17 14.5901C161.4 15.8201 160.22 16.7501 158.62 17.4001C157.4 17.8901 155.92 18.2001 154.19 18.3101H154.21ZM140.28 12.9701H154.34V8.32006H140.28V12.9701ZM166.5 1.81006V8.88006H178.59V27.1101H187.14V8.88006H199.23V1.81006H166.5Z" fill="#B9906A"/>
<path d="M59.47 38.3C58.95 38.04 58.36 37.9 57.68 37.9H55V44.2H57.68C58.36 44.2 58.95 44.07 59.47 43.8C59.99 43.54 60.39 43.17 60.68 42.69C60.97 42.22 61.11 41.67 61.11 41.04C61.11 40.41 60.97 39.87 60.68 39.39C60.39 38.92 59.99 38.55 59.47 38.28V38.3ZM59.88 42.29C59.67 42.65 59.37 42.92 58.99 43.12C58.61 43.32 58.15 43.42 57.62 43.42H55.91V38.69H57.62C58.15 38.69 58.6 38.79 58.99 38.99C59.37 39.19 59.67 39.46 59.88 39.82C60.09 40.17 60.2 40.59 60.2 41.06C60.2 41.53 60.09 41.94 59.88 42.3V42.29ZM65.22 43.42H68.92V44.2H64.31V37.9H68.79V38.68H65.22V40.61H68.4V41.37H65.22V43.4V43.42ZM76.72 37.91H77.63L74.85 44.21H73.95L71.16 37.91H72.14L74.43 43.09L76.73 37.91H76.72ZM81.15 43.42H84.85V44.2H80.24V37.9H84.72V38.68H81.15V40.61H84.33V41.37H81.15V43.4V43.42ZM89.04 43.42H92.48V44.2H88.14V37.9H89.05V43.42H89.04ZM100.49 38.75C100.19 38.46 99.83 38.23 99.42 38.08C99.01 37.92 98.56 37.84 98.08 37.84C97.6 37.84 97.14 37.92 96.73 38.08C96.32 38.24 95.96 38.47 95.66 38.76C95.36 39.05 95.12 39.39 94.95 39.78C94.78 40.17 94.7 40.6 94.7 41.06C94.7 41.52 94.78 41.95 94.95 42.34C95.12 42.73 95.35 43.07 95.66 43.36C95.96 43.65 96.32 43.88 96.73 44.04C97.14 44.2 97.59 44.28 98.08 44.28C98.57 44.28 99.01 44.2 99.42 44.04C99.83 43.88 100.19 43.66 100.49 43.36C100.79 43.07 101.03 42.73 101.19 42.34C101.36 41.95 101.44 41.52 101.44 41.05C101.44 40.58 101.36 40.16 101.19 39.77C101.02 39.38 100.79 39.04 100.49 38.74V38.75ZM100.35 42.02C100.23 42.31 100.05 42.57 99.83 42.79C99.61 43.01 99.35 43.18 99.05 43.3C98.75 43.42 98.42 43.48 98.07 43.48C97.72 43.48 97.39 43.42 97.1 43.3C96.8 43.18 96.54 43.01 96.31 42.79C96.09 42.57 95.91 42.32 95.79 42.02C95.67 41.73 95.6 41.4 95.6 41.06C95.6 40.72 95.66 40.39 95.79 40.1C95.91 39.81 96.09 39.55 96.31 39.33C96.53 39.11 96.8 38.94 97.1 38.82C97.4 38.7 97.72 38.64 98.07 38.64C98.42 38.64 98.75 38.7 99.05 38.82C99.35 38.94 99.61 39.11 99.83 39.33C100.05 39.55 100.22 39.81 100.35 40.1C100.47 40.39 100.54 40.71 100.54 41.06C100.54 41.41 100.48 41.73 100.35 42.02ZM108.55 38.17C108.16 38 107.68 37.91 107.13 37.91H104.65V44.21H105.56V42.3H107.13C107.69 42.3 108.16 42.21 108.55 42.03C108.94 41.85 109.25 41.6 109.46 41.27C109.67 40.94 109.78 40.55 109.78 40.1C109.78 39.65 109.67 39.25 109.46 38.92C109.25 38.59 108.95 38.34 108.55 38.16V38.17ZM108.42 41.15C108.12 41.4 107.68 41.52 107.1 41.52H105.56V38.69H107.1C107.68 38.69 108.12 38.81 108.42 39.06C108.72 39.31 108.87 39.65 108.87 40.1C108.87 40.55 108.72 40.9 108.42 41.14V41.15ZM119.67 37.91V44.21H118.81V39.62L116.51 43.45H116.09L113.8 39.65V44.22H112.93V37.92H113.67L116.32 42.34L118.93 37.92H119.67V37.91ZM124.3 43.42H128V44.2H123.39V37.9H127.87V38.68H124.3V40.61H127.48V41.37H124.3V43.4V43.42ZM135.84 37.91H136.75V44.21H136.01L132.2 39.52V44.21H131.29V37.91H132.03L135.84 42.6V37.91ZM144.8 37.91V38.69H142.62V44.21H141.72V38.69H139.54V37.91H144.79H144.8Z" fill="#B9906A"/>
</g>
<defs>
<clipPath id="clip0_2928_6133">
<rect width="199.23" height="43.78" fill="white" transform="translate(0 0.5)"/>
</clipPath>
</defs>
</svg>
