<svg width="127" height="24" viewBox="0 0 127 24" fill="none" xmlns="http://www.w3.org/2000/svg">
<path d="M20.5221 0.95459H28.041V23.2733H20.5221V15.0307H7.77676V23.2733H0.257812V0.95459H7.77676V8.80012H20.5221V0.95459ZM53.1891 0.95459L63.6155 23.1145V23.2821H55.4114L53.5053 18.9843H41.9634L40.0573 23.2821H32.1167V23.1145L42.4465 0.95459H53.1979H53.1891ZM51.2479 13.8922L47.8398 6.21436H47.6465L44.2384 13.8922H51.2567H51.2479ZM87.4548 15.516L95.7994 23.1145V23.2821H86.3568L78.1527 15.569H75.2101V23.2821H67.6912V0.95459H85.9879C88.1487 0.95459 89.923 1.24582 91.3284 1.82828C92.7338 2.41073 93.7703 3.2403 94.4467 4.32579C95.123 5.41127 95.4568 6.72622 95.4568 8.27944C95.4568 9.83266 95.123 11.1476 94.4467 12.2331C93.7703 13.3186 92.7338 14.1393 91.3284 14.7129C90.2568 15.1454 88.9568 15.419 87.4372 15.516H87.4548ZM75.2189 10.8034H87.569V6.69974H75.2189V10.8034ZM98.2501 0.95459V7.19395H108.87V23.2821H116.38V7.19395H127V0.95459H98.2501Z" fill="white"/>
</svg>
