<svg width="32" height="33" viewBox="0 0 32 33" fill="none" xmlns="http://www.w3.org/2000/svg">
<g clip-path="url(#clip0_3071_2506)">
<path d="M9.33317 2.93925H7.99984C3.99984 2.93925 2.6665 5.32591 2.6665 8.27258V9.60591V28.2726C2.6665 29.3792 3.91984 30.0059 4.79984 29.3392L7.07984 27.6326C7.61317 27.2326 8.35984 27.2859 8.83984 27.7659L11.0532 29.9926C11.5732 30.5126 12.4265 30.5126 12.9465 29.9926L15.1865 27.7526C15.6532 27.2859 16.3998 27.2326 16.9198 27.6326L19.1998 29.3392C20.0798 29.9926 21.3332 29.3659 21.3332 28.2726V5.60591C21.3332 4.13925 22.5332 2.93925 23.9998 2.93925H9.33317ZM7.95984 18.9526C7.2265 18.9526 6.6265 18.3526 6.6265 17.6192C6.6265 16.8859 7.2265 16.2859 7.95984 16.2859C8.69317 16.2859 9.29317 16.8859 9.29317 17.6192C9.29317 18.3526 8.69317 18.9526 7.95984 18.9526ZM7.95984 13.6192C7.2265 13.6192 6.6265 13.0192 6.6265 12.2859C6.6265 11.5526 7.2265 10.9526 7.95984 10.9526C8.69317 10.9526 9.29317 11.5526 9.29317 12.2859C9.29317 13.0192 8.69317 13.6192 7.95984 13.6192ZM15.9998 18.6192H11.9998C11.4532 18.6192 10.9998 18.1659 10.9998 17.6192C10.9998 17.0726 11.4532 16.6192 11.9998 16.6192H15.9998C16.5465 16.6192 16.9998 17.0726 16.9998 17.6192C16.9998 18.1659 16.5465 18.6192 15.9998 18.6192ZM15.9998 13.2859H11.9998C11.4532 13.2859 10.9998 12.8326 10.9998 12.2859C10.9998 11.7392 11.4532 11.2859 11.9998 11.2859H15.9998C16.5465 11.2859 16.9998 11.7392 16.9998 12.2859C16.9998 12.8326 16.5465 13.2859 15.9998 13.2859Z" fill="currentColor"/>
<path d="M24.0135 2.93925V4.93925C24.8935 4.93925 25.7335 5.29925 26.3468 5.89925C26.9868 6.55258 27.3335 7.39258 27.3335 8.27258V11.4992C27.3335 12.4859 26.8935 12.9392 25.8935 12.9392H23.3335V5.61925C23.3335 5.24591 23.6402 4.93925 24.0135 4.93925V2.93925ZM24.0135 2.93925C22.5335 2.93925 21.3335 4.13925 21.3335 5.61925V14.9392H25.8935C28.0002 14.9392 29.3335 13.6059 29.3335 11.4992V8.27258C29.3335 6.80591 28.7335 5.47258 27.7735 4.49925C26.8002 3.53925 25.4802 2.95258 24.0135 2.93925C24.0268 2.93925 24.0135 2.93925 24.0135 2.93925Z" fill="currentColor"/>
</g>
<defs>
<clipPath id="clip0_3071_2506">
<rect width="32" height="32" fill="white" transform="translate(0 0.636353)"/>
</clipPath>
</defs>
</svg>
