<svg width="36" height="39" viewBox="0 0 36 39" fill="none" xmlns="http://www.w3.org/2000/svg">
<path d="M27.5811 38.4687H35.1878L34.1865 31.8498L35.1878 25.6458L33.4311 18.8416L34.3446 7.2366L32.6054 2.70049V0H29.8561V1.05901H26.0615L24.9898 2.62106L21.2567 4.36843L22.7412 6.95419L26.527 7.56312L23.9885 9.61938L21.7398 8.88689L19.6141 5.09209L16.979 3.4418L14.1682 3.7948L17.2689 6.92772L18.402 12.4964L20.9054 13.8996L19.0081 15.4175L14.1067 15.0998L11.2344 16.653L15.0817 18.7975L16.8999 18.3474L21.0547 20.1213L23.0574 19.2652L22.4689 23.1748L18.8851 28.0374L20.1148 35.7594L17.7608 36.9772L16.9614 38.4687H24.2959L23.7689 34.1267L27.0101 30.226L30.6905 35.7064L28.2662 36.9949L27.5811 38.4687Z" fill="white"/>
<path d="M7.88101 0.00400886L6.5332 1.35815L7.88101 2.7123L9.22882 1.35815L7.88101 0.00400886Z" fill="white"/>
<path d="M11.4541 28.4787H8.87166V19.5565L10.1102 18.3121L8.87166 17.0678V14.332L15.767 7.40428L10.6109 2.22394L7.87909 4.96855L5.14732 2.22394L0 7.40428L6.8953 14.332V17.0678L5.65678 18.3121L6.8953 19.5565V28.4787H4.35677V27.2343H2.38041V31.6998H4.35677V30.4555H6.8953V35.2387H4.35677V33.9944H2.38041V38.4599H4.35677V37.2155H11.4541V38.4599H13.4305V33.9944H11.4541V35.2387H8.87166V30.4555H11.4541V31.6998H13.4305V27.2343H11.4541V28.4787ZM5.1561 5.0215L6.49124 6.36292L5.4811 7.37781L6.87773 8.781L7.88787 7.76611L8.89801 8.781L10.2946 7.37781L9.2845 6.36292L10.6196 5.0215L12.9825 7.39546L7.88787 12.514L2.79325 7.39546L5.1561 5.0215Z" fill="white"/>
</svg>
