<svg width="18" height="18" viewBox="0 0 18 18" fill="none" xmlns="http://www.w3.org/2000/svg">
<path d="M6.135 3L2.25 3C2.05109 3 1.86032 3.07902 1.71967 3.21967C1.57902 3.36032 1.5 3.55109 1.5 3.75C1.5 3.94892 1.57902 4.13968 1.71967 4.28033C1.86032 4.42099 2.05109 4.5 2.25 4.5L6.135 4.5C6.29265 4.93437 6.58022 5.30966 6.95862 5.57487C7.33703 5.84009 7.78791 5.98236 8.25 5.98236C8.71209 5.98236 9.16297 5.84009 9.54138 5.57487C9.91978 5.30966 10.2073 4.93437 10.365 4.5L15.75 4.5C15.9489 4.5 16.1397 4.42099 16.2803 4.28033C16.421 4.13968 16.5 3.94891 16.5 3.75C16.5 3.55109 16.421 3.36032 16.2803 3.21967C16.1397 3.07902 15.9489 3 15.75 3L10.365 3C10.2073 2.56564 9.91978 2.19035 9.54138 1.92513C9.16297 1.65992 8.71209 1.51765 8.25 1.51765C7.78791 1.51765 7.33703 1.65992 6.95862 1.92513C6.58022 2.19035 6.29265 2.56564 6.135 3ZM9 3.75C9 3.89834 8.95601 4.04334 8.8736 4.16668C8.79119 4.29002 8.67406 4.38615 8.53701 4.44291C8.39997 4.49968 8.24917 4.51453 8.10368 4.48559C7.9582 4.45665 7.82456 4.38522 7.71967 4.28033C7.61478 4.17544 7.54335 4.04181 7.51441 3.89632C7.48547 3.75084 7.50032 3.60004 7.55709 3.46299C7.61386 3.32595 7.70998 3.20881 7.83332 3.1264C7.95666 3.04399 8.10166 3 8.25 3C8.44891 3 8.63968 3.07902 8.78033 3.21967C8.92098 3.36032 9 3.55109 9 3.75ZM10.635 8.25L2.25 8.25C2.05109 8.25 1.86032 8.32902 1.71967 8.46967C1.57902 8.61033 1.5 8.80109 1.5 9C1.5 9.19892 1.57902 9.38968 1.71967 9.53033C1.86032 9.67099 2.05109 9.75 2.25 9.75L10.635 9.75C10.7927 10.1844 11.0802 10.5597 11.4586 10.8249C11.837 11.0901 12.2879 11.2324 12.75 11.2324C13.2121 11.2324 13.663 11.0901 14.0414 10.8249C14.4198 10.5597 14.7073 10.1844 14.865 9.75L15.75 9.75C15.9489 9.75 16.1397 9.67099 16.2803 9.53033C16.421 9.38968 16.5 9.19891 16.5 9C16.5 8.80109 16.421 8.61033 16.2803 8.46967C16.1397 8.32902 15.9489 8.25 15.75 8.25L14.865 8.25C14.7073 7.81564 14.4198 7.44035 14.0414 7.17513C13.663 6.90992 13.2121 6.76765 12.75 6.76765C12.2879 6.76765 11.837 6.90992 11.4586 7.17513C11.0802 7.44035 10.7927 7.81564 10.635 8.25ZM13.5 9C13.5 9.14834 13.456 9.29334 13.3736 9.41668C13.2912 9.54002 13.1741 9.63615 13.037 9.69291C12.9 9.74968 12.7492 9.76453 12.6037 9.73559C12.4582 9.70665 12.3246 9.63522 12.2197 9.53033C12.1148 9.42544 12.0433 9.29181 12.0144 9.14632C11.9855 9.00083 12.0003 8.85003 12.0571 8.71299C12.1139 8.57595 12.21 8.45881 12.3333 8.3764C12.4567 8.29399 12.6017 8.25 12.75 8.25C12.9489 8.25 13.1397 8.32902 13.2803 8.46967C13.421 8.61033 13.5 8.80109 13.5 9ZM4.635 13.5L2.25 13.5C2.05109 13.5 1.86032 13.579 1.71967 13.7197C1.57902 13.8603 1.5 14.0511 1.5 14.25C1.5 14.4489 1.57902 14.6397 1.71967 14.7803C1.86032 14.921 2.05109 15 2.25 15L4.635 15C4.79265 15.4344 5.08022 15.8097 5.45862 16.0749C5.83703 16.3401 6.28791 16.4824 6.75 16.4824C7.21209 16.4824 7.66297 16.3401 8.04138 16.0749C8.41978 15.8097 8.70735 15.4344 8.865 15L15.75 15C15.9489 15 16.1397 14.921 16.2803 14.7803C16.421 14.6397 16.5 14.4489 16.5 14.25C16.5 14.0511 16.421 13.8603 16.2803 13.7197C16.1397 13.579 15.9489 13.5 15.75 13.5L8.865 13.5C8.70735 13.0656 8.41978 12.6903 8.04138 12.4251C7.66297 12.1599 7.21209 12.0176 6.75 12.0176C6.28791 12.0176 5.83703 12.1599 5.45862 12.4251C5.08022 12.6903 4.79265 13.0656 4.635 13.5ZM7.5 14.25C7.5 14.3983 7.45601 14.5433 7.3736 14.6667C7.29119 14.79 7.17406 14.8861 7.03701 14.9429C6.89997 14.9997 6.74917 15.0145 6.60368 14.9856C6.4582 14.9567 6.32456 14.8852 6.21967 14.7803C6.11478 14.6754 6.04335 14.5418 6.01441 14.3963C5.98547 14.2508 6.00032 14.1 6.05709 13.963C6.11386 13.8259 6.20999 13.7088 6.33332 13.6264C6.45666 13.544 6.60166 13.5 6.75 13.5C6.94891 13.5 7.13968 13.579 7.28033 13.7197C7.42098 13.8603 7.5 14.0511 7.5 14.25Z" fill="#ECEFF3"/>
</svg>
