<svg width="40" height="40" viewBox="0 0 40 40" fill="none" xmlns="http://www.w3.org/2000/svg">
<g clip-path="url(#clip0_2938_8407)">
<path d="M16.3639 11.769C16.3639 14.758 22.3094 16.3224 28.1821 16.3224C34.0549 16.3224 40.0003 14.758 40.0003 11.769C40.0002 5.79094 16.3639 5.79094 16.3639 11.769Z" fill="white"/>
<path d="M39.5614 16.1792C39.4276 16.0984 39.2752 16.0535 39.1189 16.0486C38.9626 16.0438 38.8078 16.0793 38.6692 16.1516C36.2207 17.4358 32.4964 18.1437 28.1818 18.1437C23.8672 18.1437 20.1429 17.4358 17.6944 16.1516C17.5558 16.0793 17.4009 16.0439 17.2447 16.0487C17.0884 16.0535 16.936 16.0984 16.8021 16.1792C16.6682 16.2603 16.5574 16.3746 16.4806 16.5111C16.4037 16.6476 16.3634 16.8016 16.3636 16.9582V17.233C16.3636 20.222 22.309 21.7864 28.1818 21.7864C34.0545 21.7864 40 20.222 40 17.233V16.9582C40.0001 16.8016 39.9598 16.6476 39.883 16.5111C39.8061 16.3747 39.6954 16.2603 39.5614 16.1792ZM5.45447 29.9825C5.45447 32.9716 11.3999 34.5359 17.2727 34.5359C23.1454 34.5359 29.0909 32.9715 29.0909 29.9825C29.0908 24.0044 5.45447 24.0044 5.45447 29.9825Z" fill="white"/>
<path d="M28.6524 34.3928C28.3807 34.23 28.0416 34.2176 27.7602 34.3653C25.3117 35.6495 21.5874 36.3574 17.2728 36.3574C12.9581 36.3574 9.23387 35.6495 6.78537 34.3653C6.50395 34.2177 6.1639 34.2301 5.89313 34.3928C5.75915 34.4739 5.64839 34.5883 5.57156 34.7248C5.49472 34.8612 5.45442 35.0153 5.45455 35.1719V35.4467C5.45455 38.4357 11.4 40 17.2728 40C23.1455 40 29.091 38.4357 29.091 35.4467V35.1719C29.0911 35.0153 29.0508 34.8613 28.9739 34.7248C28.8971 34.5883 28.7864 34.474 28.6524 34.3928ZM11.8182 9.037C13.046 9.037 14.2739 8.96763 15.4679 8.82982C15.6625 8.80751 15.8446 8.72297 15.9873 8.58879C17.3642 7.29036 19.7168 6.33257 22.7904 5.81942C22.9502 5.79276 23.1 5.72387 23.2242 5.6199C23.3485 5.51592 23.4427 5.38063 23.4971 5.22802C23.5912 4.9657 23.6364 4.72203 23.6364 4.48365C23.6364 -1.49454 2.43524e-07 -1.49454 2.43524e-07 4.48356C2.43524e-07 7.47266 5.94546 9.037 11.8182 9.037ZM11.8182 14.501C12.571 14.501 13.3053 14.4752 14.0164 14.4281C14.1578 14.4185 14.295 14.3761 14.4171 14.3041C14.5391 14.2322 14.6427 14.1327 14.7195 14.0136C14.7962 13.8944 14.8441 13.759 14.8595 13.6181C14.8749 13.4772 14.8574 13.3346 14.8083 13.2016C14.6317 12.7258 14.5456 12.2571 14.55 11.72C14.55 11.5968 14.525 11.4749 14.4764 11.3616C14.4279 11.2483 14.3569 11.1461 14.2677 11.0611C14.0883 10.8894 13.8353 10.7854 13.5973 10.8102C13.0034 10.8387 12.4094 10.8582 11.8182 10.8582C7.50358 10.8582 3.77932 10.1503 1.33082 8.86612C1.19222 8.79381 1.03736 8.75837 0.881102 8.76319C0.724848 8.76801 0.572459 8.81294 0.43858 8.89365C0.304615 8.97483 0.193862 9.08921 0.117031 9.22571C0.0402002 9.36222 -0.00010934 9.51624 2.43524e-07 9.67289V9.94766C2.43524e-07 12.9368 5.94546 14.501 11.8182 14.501ZM11.8182 19.9651C12.571 19.9651 13.3053 19.9393 14.0164 19.8922C14.1578 19.8826 14.295 19.8402 14.4171 19.7682C14.5391 19.6963 14.6427 19.5968 14.7195 19.4777C14.7962 19.3585 14.8441 19.2231 14.8595 19.0822C14.8749 18.9413 14.8574 18.7987 14.8083 18.6657C14.6317 18.1899 14.5456 17.7212 14.5456 17.1841C14.5456 17.0609 14.5205 16.939 14.472 16.8257C14.4235 16.7124 14.3524 16.6102 14.2632 16.5252C14.0839 16.3535 13.8353 16.2557 13.5929 16.2743C13.0007 16.3028 12.4086 16.3223 11.8182 16.3223C7.50358 16.3223 3.77932 15.6144 1.33082 14.3302C1.19222 14.2579 1.03736 14.2225 0.881102 14.2273C0.724848 14.2321 0.572459 14.277 0.43858 14.3577C0.304621 14.4389 0.193872 14.5533 0.117041 14.6898C0.04021 14.8263 -0.00010294 14.9803 2.43524e-07 15.1369V15.4117C2.43524e-07 18.4008 5.94546 19.9651 11.8182 19.9651ZM39.5615 27.1073C39.4279 27.026 39.2754 26.9807 39.119 26.9758C38.9626 26.971 38.8077 27.0068 38.6693 27.0798C36.9585 27.9772 34.5517 28.6041 31.7099 28.8914C31.2305 28.9403 30.8888 29.5006 30.9091 29.9826C30.9091 30.4442 30.8346 30.8853 30.6818 31.3291C30.632 31.474 30.6195 31.6292 30.6454 31.7803C30.6713 31.9313 30.7349 32.0735 30.8301 32.1935C30.9153 32.3005 31.0234 32.3869 31.1465 32.4463C31.2696 32.5057 31.4046 32.5367 31.5413 32.5368C31.5732 32.5368 31.606 32.535 31.6389 32.5315C36.8742 31.9658 40.0001 30.3322 40.0001 28.1612V27.8864C40.0002 27.7298 39.9598 27.5758 39.883 27.4393C39.8062 27.3028 39.6954 27.1885 39.5615 27.1073ZM17.2728 23.6078L17.8756 23.6185H17.8916C18.3159 23.6185 18.6844 23.3241 18.7785 22.9088C18.8247 22.7046 18.7992 22.4907 18.7062 22.3031C18.6132 22.1156 18.4585 21.9657 18.268 21.8789L18.0736 21.7917C17.9439 21.7348 17.8134 21.6778 17.6927 21.6147C17.4095 21.4661 17.0739 21.4795 16.8014 21.644C16.6677 21.7251 16.5572 21.8394 16.4805 21.9757C16.4038 22.112 16.3636 22.2657 16.3637 22.4221V22.6969C16.3636 23.2005 16.7703 23.6078 17.2728 23.6078ZM39.5615 21.6433C39.4276 21.5626 39.2752 21.5176 39.119 21.5128C38.9627 21.508 38.8078 21.5434 38.6693 21.6158C36.2208 22.9 32.4965 23.6079 28.1819 23.6079L27.5817 23.5963C27.215 23.5652 26.7765 23.888 26.6832 24.3086C26.6374 24.5124 26.6632 24.7258 26.7562 24.9128C26.8491 25.0999 27.0036 25.2492 27.1937 25.3358C28.1783 25.784 28.9827 26.3168 29.5837 26.9188C29.675 27.01 29.7847 27.0807 29.9055 27.1263C30.0263 27.1718 30.1554 27.1911 30.2842 27.1829C34.7657 26.8984 40.0001 25.5528 40.0001 22.6972V22.4224C40.0002 22.2658 39.9599 22.1118 39.883 21.9753C39.8062 21.8388 39.6955 21.7245 39.5615 21.6433ZM7.60296 25.1464C7.71657 25.1464 7.83026 25.1251 7.93765 25.0824C9.53924 24.4483 11.4923 24.0116 13.7438 23.7849C14.2232 23.7369 14.5659 23.1304 14.5454 22.6483C14.5454 22.5251 14.5204 22.4031 14.4718 22.2899C14.4233 22.1766 14.3523 22.0743 14.263 21.9893C14.0837 21.8177 13.8351 21.7261 13.5927 21.7385C13.0006 21.767 12.4084 21.7865 11.818 21.7865C7.50341 21.7865 3.77915 21.0786 1.33065 19.7944C1.19205 19.7221 1.03719 19.6866 0.880932 19.6915C0.724677 19.6963 0.572289 19.7412 0.43841 19.8219C0.304489 19.9031 0.193777 20.0175 0.116977 20.1539C0.0401763 20.2904 -0.000114294 20.4444 2.43524e-07 20.601V20.8758C2.43524e-07 22.8883 2.79477 24.482 7.47691 25.1375C7.51867 25.1437 7.56128 25.1464 7.60296 25.1464Z" fill="white"/>
</g>
<defs>
<clipPath id="clip0_2938_8407">
<rect width="40" height="40" fill="white"/>
</clipPath>
</defs>
</svg>
