<svg width="32" height="33" viewBox="0 0 32 33" fill="none" xmlns="http://www.w3.org/2000/svg">
<g clip-path="url(#clip0_3071_2526)">
<path d="M27.4935 11.5392C26.0935 5.37925 20.7201 2.60592 16.0001 2.60592C16.0001 2.60592 16.0001 2.60592 15.9868 2.60592C11.2801 2.60592 5.89346 5.36591 4.49346 11.5259C2.93346 18.4059 7.14679 24.2326 10.9601 27.8992C12.3735 29.2592 14.1868 29.9392 16.0001 29.9392C17.8135 29.9392 19.6268 29.2592 21.0268 27.8992C24.8401 24.2326 29.0535 18.4192 27.4935 11.5392ZM16.0001 18.2192C13.6801 18.2192 11.8001 16.3392 11.8001 14.0192C11.8001 11.6992 13.6801 9.81925 16.0001 9.81925C18.3201 9.81925 20.2001 11.6992 20.2001 14.0192C20.2001 16.3392 18.3201 18.2192 16.0001 18.2192Z" fill="currentColor"/>
</g>
<defs>
<clipPath id="clip0_3071_2526">
<rect width="32" height="32" fill="white" transform="translate(0 0.636353)"/>
</clipPath>
</defs>
</svg>
