<svg width="32" height="33" viewBox="0 0 32 33" fill="none" xmlns="http://www.w3.org/2000/svg">
<path d="M11.1361 27.959C11.7163 28.6927 12.4556 29.2849 13.2982 29.691C14.1409 30.097 15.0647 30.3063 16.0001 30.303C16.9354 30.3063 17.8593 30.097 18.7019 29.691C19.5446 29.2849 20.2839 28.6927 20.8641 27.959C17.6361 28.3959 14.364 28.3959 11.1361 27.959ZM25.0001 12.9697V13.9084C25.0001 15.035 25.3201 16.1364 25.9228 17.0737L27.4001 19.371C28.7481 21.4697 27.7188 24.3217 25.3734 24.9844C19.245 26.7199 12.7551 26.7199 6.62675 24.9844C4.28142 24.3217 3.25208 21.4697 4.60008 19.371L6.07742 17.0737C6.6817 16.1286 7.00237 15.0301 7.00142 13.9084V12.9697C7.00142 7.81502 11.0307 3.63635 16.0001 3.63635C20.9694 3.63635 25.0001 7.81502 25.0001 12.9697Z" fill="currentColor"/>
</svg>
