<svg width="32" height="33" viewBox="0 0 32 33" fill="none" xmlns="http://www.w3.org/2000/svg">
<path d="M11.3333 4.63635H6C4.89543 4.63635 4 5.53178 4 6.63635V11.9697C4 13.0743 4.89543 13.9697 6 13.9697H11.3333C12.4379 13.9697 13.3333 13.0743 13.3333 11.9697V6.63635C13.3333 5.53178 12.4379 4.63635 11.3333 4.63635Z" fill="currentColor" stroke="currentColor" stroke-width="1.5" stroke-linecap="round" stroke-linejoin="round"/>
<path d="M25.9998 4.63635H20.6665C19.5619 4.63635 18.6665 5.53178 18.6665 6.63635V11.9697C18.6665 13.0743 19.5619 13.9697 20.6665 13.9697H25.9998C27.1044 13.9697 27.9998 13.0743 27.9998 11.9697V6.63635C27.9998 5.53178 27.1044 4.63635 25.9998 4.63635Z" fill="currentColor" stroke="currentColor" stroke-width="1.5" stroke-linecap="round" stroke-linejoin="round"/>
<path d="M25.9998 19.303H20.6665C19.5619 19.303 18.6665 20.1984 18.6665 21.303V26.6363C18.6665 27.7409 19.5619 28.6363 20.6665 28.6363H25.9998C27.1044 28.6363 27.9998 27.7409 27.9998 26.6363V21.303C27.9998 20.1984 27.1044 19.303 25.9998 19.303Z" fill="currentColor" stroke="currentColor" stroke-width="1.5" stroke-linecap="round" stroke-linejoin="round"/>
<path d="M11.3333 19.303H6C4.89543 19.303 4 20.1984 4 21.303V26.6363C4 27.7409 4.89543 28.6363 6 28.6363H11.3333C12.4379 28.6363 13.3333 27.7409 13.3333 26.6363V21.303C13.3333 20.1984 12.4379 19.303 11.3333 19.303Z" fill="currentColor" stroke="currentColor" stroke-width="1.5" stroke-linecap="round" stroke-linejoin="round"/>
</svg>
