<svg width="32" height="33" viewBox="0 0 32 33" fill="none" xmlns="http://www.w3.org/2000/svg">
<path d="M4 13.926C4 12.6917 4.56989 11.5264 5.54424 10.7686L12.3164 5.50141C14.483 3.81623 17.517 3.81623 19.6836 5.50141L26.4558 10.7686C27.4301 11.5264 28 12.6917 28 13.926V26.6364C28 27.3436 27.719 28.0219 27.219 28.522C26.7189 29.0221 26.0406 29.303 25.3333 29.303H16H6.66667C5.95942 29.303 5.28115 29.0221 4.78105 28.522C4.28095 28.0219 4 27.3436 4 26.6364V13.926Z" fill="currentColor" stroke="currentColor" stroke-width="1.5" stroke-linecap="round" stroke-linejoin="round"/>
<g opacity="0.5">
<path d="M12 29.3336V20.3336C12 18.1245 13.7909 16.3336 16 16.3336C18.2091 16.3336 20 18.1245 20 20.3336V29.3336" fill="#283851"/>
<path d="M12 29.3336V20.3336C12 18.1245 13.7909 16.3336 16 16.3336V16.3336C18.2091 16.3336 20 18.1245 20 20.3336V29.3336" stroke="currentColor" stroke-width="1.5" stroke-linecap="round" stroke-linejoin="round"/>
</g>
</svg>
