<svg width="32" height="33" viewBox="0 0 32 33" fill="none" xmlns="http://www.w3.org/2000/svg">
<path d="M22.6663 28.6364V25.9697C22.6663 24.5552 22.1044 23.1986 21.1042 22.1985C20.104 21.1983 18.7475 20.6364 17.333 20.6364H6.66634C5.25185 20.6364 3.8953 21.1983 2.89511 22.1985C1.89491 23.1986 1.33301 24.5552 1.33301 25.9697V28.6364H22.6663Z" fill="currentColor" stroke="currentColor" stroke-width="2" stroke-linecap="round" stroke-linejoin="round"/>
<path d="M12.0003 15.303C14.9458 15.303 17.3337 12.9152 17.3337 9.96969C17.3337 7.02417 14.9458 4.63635 12.0003 4.63635C9.05481 4.63635 6.66699 7.02417 6.66699 9.96969C6.66699 12.9152 9.05481 15.303 12.0003 15.303Z" fill="currentColor" stroke="currentColor" stroke-width="2" stroke-linecap="round" stroke-linejoin="round"/>
<path d="M30.667 28.6364V25.9697C30.6661 24.788 30.2728 23.6401 29.5488 22.7061C28.8248 21.7722 27.8112 21.1051 26.667 20.8097V28.6364H30.667Z" fill="currentColor" stroke="currentColor" stroke-width="2" stroke-linecap="round" stroke-linejoin="round"/>
<path d="M21.333 4.80969C22.4802 5.10343 23.4971 5.77063 24.2232 6.70611C24.9493 7.64159 25.3435 8.79213 25.3435 9.97636C25.3435 11.1606 24.9493 12.3111 24.2232 13.2466C23.4971 14.1821 22.4802 14.8493 21.333 15.143V4.80969Z" fill="currentColor" stroke="currentColor" stroke-width="2" stroke-linecap="round" stroke-linejoin="round"/>
</svg>
