<svg width="15" height="14" viewBox="0 0 15 14" fill="none" xmlns="http://www.w3.org/2000/svg">
<g clip-path="url(#clip0_3024_11289)">
<path fill-rule="evenodd" clip-rule="evenodd" d="M13.5802 14.0897H0.669922V13.0897H13.5802V14.0897Z" fill="#6B7484"/>
<path fill-rule="evenodd" clip-rule="evenodd" d="M12.8086 14.0897H9.67538L9.67538 3.02948H12.8086L12.8086 14.0897ZM11.8086 13.0897L11.8086 4.02948H10.6754L10.6754 13.0897H11.8086Z" fill="#6B7484"/>
<path fill-rule="evenodd" clip-rule="evenodd" d="M10.6862 -0.118378V13.5897H9.68621V1.20057L4.5625 2.63716V5.14563H3.5625V1.87897L10.6862 -0.118378Z" fill="#6B7484"/>
<path fill-rule="evenodd" clip-rule="evenodd" d="M7.54146 5.48798V3.83763H8.54146V5.48798H7.54146ZM1.44141 4.64563H6.70784V14.0897H1.44141V4.64563ZM2.44141 5.64563V13.0897H5.70784V5.64563H2.44141ZM3.57462 8.50204V6.85169H4.57462V8.50204H3.57462ZM7.54146 8.50204V6.85169H8.54146V8.50204H7.54146ZM3.57462 11.5161V9.86578H4.57462V11.5161H3.57462ZM7.54146 11.5161V9.86578H8.54146V11.5161H7.54146Z" fill="#6B7484"/>
</g>
<defs>
<clipPath id="clip0_3024_11289">
<rect width="14" height="14" fill="white" transform="translate(0.125)"/>
</clipPath>
</defs>
</svg>
